# xmcd
# 
# Track frame offsets:
#     150
#     16926
#     30049
#     42456
#     57049
#     75214
#     88249
#     101422
#     115995
#     130708
#     147041
#     158897
#     168526
#     181257
#     199148
#     210618
#     222266
#     238370
#     250769
#     260849
# 
# Disc length: 3701
# 
# Revision: 1
# Processed by: cddbd v1.5.2PL0 Copyright (c) Steve Scherf et al.
# Submitted via: fre:ac v1.0.17
# 
DISCID=0e0e7314
DTITLE=Various Artist - Country Hits [CD2]
DYEAR=0
DGENRE=Country
TTITLE0=Dolly Parton - Jolene
TTITLE1=Lynn Anderson - Rose Garden
TTITLE2=Johnny Cash - I Walk The Line
TTITLE3=Asleep at the Wheel - House Of Blue Lights
TTITLE4=Lonestar - Amazed
TTITLE5=Jennifer Warnes - Right Time Of The Night
TTITLE6=Tanya Tucker - Delta Dawn
TTITLE7=Dwight Yoakam - Heartaches By The Number
TTITLE8=The Bellamy Brothers - Let Your Love Flow
TTITLE9=The Charlie Daniels Band - Devil Went Down To Georgia
TTITLE10=Johhny Paycheck - Take This Job And Shove It
TTITLE11=Waylon Jennings - Theme From The Dukes Of Hazard (Good Ol' Boys)
TTITLE12=Charley Pride - Crystal Chandelier
TTITLE13=Charlie Landsborough - What Colour Is The Wind
TTITLE14=Don Gibson - Sea Of Heartbreak
TTITLE15=Freddie Fender - Before The Nest Teardrop Falls
TTITLE16=Joe South - Games People Play
TTITLE17=Randy Travis - Dreamin'
TTITLE18=Johnny Cash - Get Rhythm
TTITLE19=Tony Joe White - Polk Salad Annie
EXTD=
EXTT0=
EXTT1=
EXTT2=
EXTT3=
EXTT4=
EXTT5=
EXTT6=
EXTT7=
EXTT8=
EXTT9=
EXTT10=
EXTT11=
EXTT12=
EXTT13=
EXTT14=
EXTT15=
EXTT16=
EXTT17=
EXTT18=
EXTT19=
PLAYORDER=
